<?xml version="1.0" encoding="iso-8859-1"?>
<!-- Uploaded to: SVG Repo, www.svgrepo.com, Generator: SVG Repo Mixer Tools -->
<svg fill="#000000" height="800px" width="800px" version="1.1" id="Layer_1" xmlns="http://www.w3.org/2000/svg" xmlns:xlink="http://www.w3.org/1999/xlink" 
	 viewBox="0 0 455 455" xml:space="preserve">
<g>
	<path style="fill-rule:evenodd;clip-rule:evenodd;" d="M336.351,106.363h-35.83c-6.986,0.051-12.346,5.157-12.396,12.104
		c-0.051,12.155-0.051,24.259,0,36.414c0.051,6.897,5.411,12.066,12.307,12.066h35.817c7.189,0,12.447-5.22,12.447-12.409
		c0.051-11.914,0.051-23.865,0-35.767C348.696,111.622,343.438,106.415,336.351,106.363z"/>
	<path style="fill-rule:evenodd;clip-rule:evenodd;" d="M227.591,288.104c33.493-0.051,60.534-27.143,60.534-60.635
		c-0.051-33.493-27.142-60.521-60.635-60.521c-33.378,0-60.47,27.129-60.521,60.47C166.918,260.961,194.06,288.104,227.591,288.104z
		"/>
	<path style="fill-rule:evenodd;clip-rule:evenodd;" d="M318.239,261.698c-7.24,19.102-19.344,34.433-36.173,45.952
		c-30.355,20.729-70.046,22.469-101.951,4.458c-16.131-9.132-28.781-21.782-37.608-38.104
		c-12.104-22.329-14.886-45.939-8.777-70.592h-27.345v132.51c0,7.595,5.169,12.752,12.752,12.752c4.864,0.051,9.678,0,14.543,0
		H335.55c8.192,0,13.146-5.004,13.146-13.197V203.361h-27.383C326.33,223.2,325.427,242.646,318.239,261.698z"/>
	<path style="fill-rule:evenodd;clip-rule:evenodd;" d="M0,0v455h455V0H0z M384.97,105.919V349.17
		c0,17.909-13.844,33.493-31.651,35.576c-1.397,0.152-2.781,0.254-4.166,0.254H105.89c-17.604,0-33.087-13.552-35.423-30.966
		c-0.292-2.032-0.445-4.115-0.445-6.147V106.96c0-18.162,12.155-32.947,30.012-36.363c2.134-0.406,4.37-0.546,6.554-0.546
		C187.253,70,267.879,70,348.505,70c18.9,0,34.433,14.035,36.363,32.795C385.021,103.836,384.97,104.877,384.97,105.919z"/>
</g>
</svg>